<svg width="24" height="24" viewBox="0 0 24 24" fill="none" xmlns="http://www.w3.org/2000/svg">
<rect width="24" height="24" fill="#1E1E1E"/>
<g clip-path="url(#clip0_0_1)">
<rect x="-1026" y="-223" width="1512" height="1095" fill="#ECECEC"/>
<mask id="path-3-inside-1_0_1" fill="white">
<path d="M-1030 -12H482V60H-1030V-12Z"/>
</mask>
<path d="M-1030 -12H482V60H-1030V-12Z" fill="white"/>
<path d="M-1030 -11H482V-13H-1030V-11Z" fill="#333333" fill-opacity="0.1" mask="url(#path-3-inside-1_0_1)"/>
<path d="M13.4637 18.4178V28.5996H12.2307V18.4178H13.4637ZM16.3534 18.4178L19.3762 26.9888H19.4955L22.5182 18.4178H23.8108L20.0722 28.5996H18.7994L15.0608 18.4178H16.3534ZM25.3968 28.5996V18.4178H28.8371C29.6325 18.4178 30.2855 18.5537 30.7959 18.8255C31.3063 19.0939 31.6842 19.4635 31.9294 19.9341C32.1747 20.4048 32.2973 20.94 32.2973 21.54C32.2973 22.1399 32.1747 22.6718 31.9294 23.1358C31.6842 23.5998 31.308 23.9644 30.8009 24.2296C30.2938 24.4914 29.6458 24.6223 28.857 24.6223H26.0729V23.5087H28.8172C29.3608 23.5087 29.7983 23.4292 30.1297 23.2701C30.4645 23.111 30.7064 22.8856 30.8556 22.5939C31.008 22.2989 31.0843 21.9476 31.0843 21.54C31.0843 21.1323 31.008 20.776 30.8556 20.4711C30.7031 20.1661 30.4595 19.9308 30.1247 19.7651C29.79 19.5961 29.3475 19.5115 28.7973 19.5115H26.6297V28.5996H25.3968ZM30.1894 24.0257L32.695 28.5996H31.2632L28.7973 24.0257H30.1894ZM46.4825 21.5996H45.2496C45.1766 21.245 45.049 20.9334 44.8667 20.665C44.6878 20.3965 44.469 20.1711 44.2105 19.9888C43.9553 19.8032 43.6719 19.664 43.3604 19.5712C43.0488 19.4784 42.724 19.432 42.3859 19.432C41.7694 19.432 41.211 19.5878 40.7105 19.8993C40.2133 20.2109 39.8173 20.6699 39.5223 21.2765C39.2306 21.883 39.0848 22.6271 39.0848 23.5087C39.0848 24.3903 39.2306 25.1344 39.5223 25.7409C39.8173 26.3475 40.2133 26.8065 40.7105 27.1181C41.211 27.4296 41.7694 27.5854 42.3859 27.5854C42.724 27.5854 43.0488 27.539 43.3604 27.4462C43.6719 27.3534 43.9553 27.2158 44.2105 27.0336C44.469 26.848 44.6878 26.6209 44.8667 26.3525C45.049 26.0807 45.1766 25.7691 45.2496 25.4178H46.4825C46.3897 25.9382 46.2207 26.4038 45.9754 26.8148C45.7301 27.2258 45.4252 27.5755 45.0606 27.8638C44.6961 28.1489 44.2867 28.3659 43.8327 28.5151C43.3819 28.6642 42.8997 28.7388 42.3859 28.7388C41.5175 28.7388 40.7453 28.5267 40.0692 28.1025C39.393 27.6782 38.8611 27.075 38.4733 26.2928C38.0855 25.5106 37.8916 24.5826 37.8916 23.5087C37.8916 22.4348 38.0855 21.5068 38.4733 20.7246C38.8611 19.9424 39.393 19.3392 40.0692 18.915C40.7453 18.4907 41.5175 18.2786 42.3859 18.2786C42.8997 18.2786 43.3819 18.3532 43.8327 18.5023C44.2867 18.6515 44.6961 18.8702 45.0606 19.1586C45.4252 19.4436 45.7301 19.7916 45.9754 20.2026C46.2207 20.6103 46.3897 21.0759 46.4825 21.5996ZM50.5629 28.7786C50.079 28.7786 49.6399 28.6874 49.2455 28.5051C48.8511 28.3195 48.5378 28.0527 48.3058 27.7047C48.0738 27.3534 47.9578 26.9292 47.9578 26.432C47.9578 25.9945 48.044 25.6399 48.2164 25.3681C48.3887 25.093 48.6191 24.8775 48.9074 24.7218C49.1958 24.566 49.5139 24.45 49.8619 24.3738C50.2133 24.2942 50.5663 24.2312 50.9209 24.1848C51.3849 24.1252 51.7611 24.0804 52.0494 24.0506C52.3411 24.0175 52.5532 23.9628 52.6858 23.8865C52.8217 23.8103 52.8896 23.6777 52.8896 23.4888V23.449C52.8896 22.9585 52.7554 22.5774 52.4869 22.3056C52.2218 22.0338 51.8191 21.8979 51.2789 21.8979C50.7187 21.8979 50.2796 22.0205 49.9614 22.2658C49.6432 22.5111 49.4195 22.7729 49.2902 23.0513L48.1766 22.6536C48.3754 22.1896 48.6406 21.8283 48.972 21.5698C49.3068 21.3079 49.6714 21.1257 50.0658 21.0229C50.4635 20.9168 50.8546 20.8638 51.2391 20.8638C51.4843 20.8638 51.7661 20.8936 52.0843 20.9533C52.4057 21.0096 52.7156 21.1273 53.0139 21.3063C53.3155 21.4853 53.5658 21.7554 53.7646 22.1167C53.9635 22.4779 54.0629 22.9618 54.0629 23.5684V28.5996H52.8896V27.5655H52.83C52.7504 27.7312 52.6179 27.9086 52.4323 28.0975C52.2467 28.2864 51.9997 28.4471 51.6915 28.5797C51.3833 28.7123 51.0071 28.7786 50.5629 28.7786ZM50.7419 27.7246C51.2059 27.7246 51.597 27.6335 51.9152 27.4512C52.2367 27.2689 52.4787 27.0336 52.6411 26.7452C52.8068 26.4569 52.8896 26.1536 52.8896 25.8354V24.7615C52.8399 24.8212 52.7306 24.8759 52.5615 24.9256C52.3958 24.972 52.2036 25.0134 51.9848 25.0499C51.7694 25.083 51.5589 25.1129 51.3534 25.1394C51.1512 25.1626 50.9872 25.1825 50.8612 25.199C50.5563 25.2388 50.2713 25.3034 50.0061 25.3929C49.7443 25.4791 49.5322 25.61 49.3698 25.7857C49.2107 25.958 49.1311 26.1934 49.1311 26.4917C49.1311 26.8993 49.2819 27.2076 49.5835 27.4164C49.8885 27.6219 50.2746 27.7246 50.7419 27.7246ZM57.3778 18.4178V28.5996H56.2045V18.4178H57.3778ZM60.7 18.4178V28.5996H59.5267V18.4178H60.7Z" fill="#333333"/>
<g opacity="0.7" filter="url(#filter0_d_0_1)">
<path d="M-1026 -223H488V872H-1026V-223Z" fill="#333333"/>
</g>
<rect x="-602" y="-35" width="665" height="719" rx="20" fill="white"/>
<g filter="url(#filter1_d_0_1)">
<path d="M-602 -15C-602 -26.0457 -593.046 -35 -582 -35H43C54.0457 -35 63 -26.0457 63 -15V56H-602V-15Z" fill="#FF7144"/>
</g>
<circle cx="12" cy="12" r="12" fill="white"/>
<path d="M17 17L7 7M17 7L7 17" stroke="#FF7144" stroke-width="2" stroke-linecap="round"/>
</g>
<rect x="-1025.5" y="-222.5" width="1511" height="1094" stroke="#FF7144"/>
<defs>
<filter id="filter0_d_0_1" x="-1030" y="-227" width="1522" height="1103" filterUnits="userSpaceOnUse" color-interpolation-filters="sRGB">
<feFlood flood-opacity="0" result="BackgroundImageFix"/>
<feColorMatrix in="SourceAlpha" type="matrix" values="0 0 0 0 0 0 0 0 0 0 0 0 0 0 0 0 0 0 127 0" result="hardAlpha"/>
<feOffset/>
<feGaussianBlur stdDeviation="2"/>
<feComposite in2="hardAlpha" operator="out"/>
<feColorMatrix type="matrix" values="0 0 0 0 0 0 0 0 0 0 0 0 0 0 0 0 0 0 0.25 0"/>
<feBlend mode="normal" in2="BackgroundImageFix" result="effect1_dropShadow_0_1"/>
<feBlend mode="normal" in="SourceGraphic" in2="effect1_dropShadow_0_1" result="shape"/>
</filter>
<filter id="filter1_d_0_1" x="-606" y="-39" width="673" height="99" filterUnits="userSpaceOnUse" color-interpolation-filters="sRGB">
<feFlood flood-opacity="0" result="BackgroundImageFix"/>
<feColorMatrix in="SourceAlpha" type="matrix" values="0 0 0 0 0 0 0 0 0 0 0 0 0 0 0 0 0 0 127 0" result="hardAlpha"/>
<feOffset/>
<feGaussianBlur stdDeviation="2"/>
<feComposite in2="hardAlpha" operator="out"/>
<feColorMatrix type="matrix" values="0 0 0 0 0 0 0 0 0 0 0 0 0 0 0 0 0 0 0.25 0"/>
<feBlend mode="normal" in2="BackgroundImageFix" result="effect1_dropShadow_0_1"/>
<feBlend mode="normal" in="SourceGraphic" in2="effect1_dropShadow_0_1" result="shape"/>
</filter>
<clipPath id="clip0_0_1">
<rect x="-1026" y="-223" width="1512" height="1095" fill="white"/>
</clipPath>
</defs>
</svg>
